<?xml version="1.0" standalone="no"?>
<!DOCTYPE svg PUBLIC "-//W3C//DTD SVG 20010904//EN"
 "http://www.w3.org/TR/2001/REC-SVG-20010904/DTD/svg10.dtd">
<svg version="1.0" xmlns="http://www.w3.org/2000/svg"
 width="16.000000pt" height="16.000000pt" viewBox="0 0 16.000000 16.000000"
 preserveAspectRatio="xMidYMid meet">

<g transform="translate(0.000000,16.000000) scale(0.100000,-0.100000)"
fill="#000000" stroke="none">
<path d="M152 130 c0 -14 2 -19 5 -12 2 6 2 18 0 25 -3 6 -5 1 -5 -13z"/>
<path d="M117 110 c-3 -12 -13 -20 -26 -20 -12 0 -21 -6 -21 -15 0 -8 8 -15
18 -15 23 0 42 -19 36 -35 -3 -7 0 -16 6 -20 7 -5 9 12 5 56 -6 70 -10 80 -18
49z"/>
<path d="M56 33 c-8 -20 -5 -22 15 -14 14 5 15 8 4 18 -10 10 -15 9 -19 -4z"/>
</g>
</svg>
